<svg xmlns="http://www.w3.org/2000/svg" viewBox="0 0 256 256"><path fill="#0065C4" d="M246.3 128.2c0-14.6-11.4-27.4-25.5-30.1-2.2-18.4-10.9-34.9-24.1-46.7-13.2-11.8-30.8-18.6-49.8-18.6h-21.7c-2.3 0-4.4 1.9-4.4 4.3v23h-22.1c-2.2 0-4.1 1.8-4.1 4.1v23.2h-22c-2.2 0-4.1 1.8-4.1 4.1V123h-19c-2.1 0-3.8 1.7-3.8 3.8v22.4c0 2.1 1.7 3.8 3.8 3.8h19v20.7c0 2.2 1.8 4.1 4.1 4.1h22v22.6c0 2.2 1.8 4.1 4.1 4.1h22.1v22.6c0 2.4 1.9 4.3 4.4 4.3h21.7c37.5 0 68-30.5 68-68zM196 80.1h15.9c3.1 0 5.6 2.5 5.6 5.6s-2.5 5.6-5.6 5.6H196V80.1zm-31.8 0h15.9v11.3h-15.9V80.1zm-31.9 0h15.9v11.3H132.3V80.1zm-31.9 0h15.9v11.3H100.4V80.1zm-31.8 0h15.9v11.3H68.6V80.1zM54.7 103.9h15.9v11.3H54.7v-11.3zm125.4 0H196v11.3h-15.9v-11.3zm-31.8 0h15.9v11.3h-15.9v-11.3zm-31.9 0h15.9v11.3H132.3v-11.3zM85.4 126.9h15.9v11.3H85.4v-11.3zm62.8 0h15.9v11.3h-15.9v-11.3zM100.4 150h15.9v11.3H100.4V150z"/></svg>