<svg xmlns="http://www.w3.org/2000/svg" width="24" height="24" viewBox="0 0 24 24" fill="currentColor"><path d="M22.12 6.13c-1.3-1.32-3.41-2.2-5.7-2.2H8.08c-1.07 0-2.09.28-2.98.78v.25c.03-.09.06-.17.1-.25.2-.42.46-.81.79-1.15C7.3.36 9.03 0 11.02 0h5.41c2.29 0 4.4 1.13 5.69 2.94.34.48.61 1.02.79 1.58.1.28.18.57.24.87.05.22.08.45.1.68.02.2-.02.39-.02.58v-.02c.02.16.04.32.04.49 0 .21-.02.43-.05.64-.04.28-.09.55-.16.82-.07.28-.16.55-.26.82-.19.51-.43 1-.72 1.45l5.24 2.25c.16-.6.26-1.22.26-1.85 0-.82-.13-1.62-.38-2.37zM8.88 15.13H5.82v-3.06h3.06v3.06zm4.19 0h-3.06v-3.06h3.06v3.06zm4.18 0h-3.06v-3.06h3.06v3.06zm4.19 0h-3.06v-3.06h3.06v3.06zm-12.56 4.19h3.06v-3.06H8.88v3.06zm4.19 0h-3.06v-3.06h3.06v3.06zm4.18 0h-3.06v-3.06h3.06v3.06zm0-8.37H1.63V8.88c.03-1.21.3-2.38.79-3.46.88-1.9 2.45-3.32 4.4-4.01.2-.07.4-.13.61-.19.06.03.12.06.18.08H1.74c-.39 0-.7.31-.7.7v16.25c0 .39.31.7.7.7h19.5c.39 0 .7-.31.7-.7V15.13h-4.05v4.19zM8.88 10.94H5.82V7.88h3.06v3.06zm4.19 0h-3.06V7.88h3.06v3.06zm4.18 0h-3.06V7.88h3.06v3.06z"/></svg>