<svg xmlns="http://www.w3.org/2000/svg" viewBox="0 0 128 128"><path fill="#E0234E" d="M115.5 87.2c-5.7-9.8-11.3-19.7-17-29.5-1.9-3.3-3.8-6.6-5.7-9.9 0 6-1.9 11.2-1.9 17.2 0 1.2.1 2.3.1 3.5.1 3.3.3 6.6.4 9.9.9 6.2 1.7 12.3 2.6 18.5.3 2 .5 4 .8 6 .2 1.3.4 2.6.6 3.9 1.1 6.2 2.2 12.4 3.3 18.6 1.4 7.6 2.8 15.3 4.2 22.9 0-13.8 5.7-25.2 5.7-39.1 0-4.8.9-8.9 1.8-13.1.5-2.2 1-4.4 1.4-6.6zm-19-32.9c1.9 3.3 3.8 6.6 5.7 9.9-5.7 9.8-11.3 19.7-17 29.5-1.9 3.3-3.8 6.6-5.7 9.9-.9-6.2-1.8-12.4-2.6-18.5-.3-2-.5-4-.8-6-.2-1.3-.4-2.6-.6-3.9-1.1-6.2-2.2-12.4-3.3-18.6-1.4-7.6-2.8-15.3-4.2-22.9 0 13.8-5.7 25.2-5.7 39.1 0 4.8-.9 8.9-1.8 13.1-.5 2.2-1 4.4-1.4 6.6 1.9-3.3 3.8-6.6 5.7-9.9zM51 64.2c-1.9-3.3-3.8-6.6-5.7-9.9C51 44.5 56.6 34.6 62.3 24.8c1.9-3.3 3.8-6.6 5.7-9.9-.9 6.2-1.8 12.4-2.6 18.5-.3 2-.5 4-.8 6-.2 1.3-.4 2.6-.6 3.9-1.1 6.2-2.2 12.4-3.3 18.6-1.4 7.6-2.8 15.3-4.2 22.9 0-13.8-5.7-25.2-5.7-39.1 0-4.8-.9-8.9-1.8-13.1-.5-2.2-1-4.4-1.4-6.6zm17-29.5c-1.9 3.3-3.8 6.6-5.7 9.9C56.6 54.4 51 64.3 45.3 74.1c-1.9 3.3-3.8 6.6-5.7 9.9 1 -6.2 1.8-12.4 2.6-18.5.3-2 .5-4 .8-6 .2-1.3.4-2.6.6-3.9 1.1-6.2 2.2-12.4 3.3-18.6 1.4-7.6 2.8-15.3 4.2-22.9 0 13.8 5.7 25.2 5.7 39.1 0 4.8.9 8.9 1.8 13.1.5 2.2 1 4.4 1.4 6.6zM68 93.7c.9-6.2 1.8-12.4 2.6-18.5.3-2 .5-4 .8-6 .2-1.3.4-2.6.6-3.9 1.1-6.2 2.2-12.4 3.3-18.6 1.4-7.6 2.8-15.3 4.2-22.9 0 13.8 5.7 25.2 5.7 39.1 0 4.8.9 8.9 1.8 13.1.5 2.2 1 4.4 1.4 6.6-1.9-3.3-3.8-6.6-5.7-9.9C79.5 63 74 53.2 68.2 43.3c-1.9-3.3-3.8-6.6-5.7-9.9-.9 6.2-1.8 12.4-2.6 18.5-.3 2-.5 4-.8 6-.2 1.3-.4 2.6-.6 3.9-1.1 6.2-2.2 12.4-3.3 18.6-1.4 7.6-2.8 15.3-4.2 22.9 0-13.8-5.7-25.2-5.7-39.1 0-4.8-.9-8.9-1.8-13.1-.5-2.2-1-4.4-1.4-6.6 1.9 3.3 3.8 6.6 5.7 9.9 5.7 9.8 11.3 19.7 17 29.5 1.9 3.3 3.8 6.6 5.7 9.9z"/></svg>