<svg xmlns="http://www.w3.org/2000/svg" viewBox="0 0 128 128"><path fill="#61dafb" d="M64 121.5c-31.8 0-57.5-25.7-57.5-57.5S32.2 6.5 64 6.5s57.5 25.7 57.5 57.5-25.7 57.5-57.5 57.5z"/><path fill="#303030" d="M64 71.5c-4.1 0-7.5-3.4-7.5-7.5s3.4-7.5 7.5-7.5 7.5 3.4 7.5 7.5-3.4 7.5-7.5 7.5z"/><path fill="#61dafb" d="M95.6 47.7c-6.8-11.8-19.4-19.7-33.6-19.7-13.4 0-25.6 7-32.5 17.6-.8 1.2.1 2.8 1.5 2.5 13.7-2.7 27.6 1.7 37.8 11.9 10.2 10.2 14.6 24.1 11.9 37.8-1.7 1.4 1.2 2.3 2.5 1.5 10.6-6.9 17.6-19.1 17.6-32.5 0-1.4-1.1-2.4-2.2-2.6z"/><path fill="#61dafb" d="M47.7 32.4c11.8 6.8 19.7 19.4 19.7 33.6 0 13.4-7 25.6-17.6 32.5-1.2.8-2.8-.1-2.5-1.5 2.7-13.7-1.7-27.6-11.9-37.8-10.2-10.2-24.1-14.6-37.8-11.9-1.4 1.7-2.3-1.2-1.5-2.5 6.9-10.6 19.1-17.6 32.5-17.6.5 0 1.1.1 1.7.1z"/><path fill="#61dafb" d="M80.3 95.6c-6.8 11.8-19.4 19.7-33.6 19.7-13.4 0-25.6-7-32.5-17.6-.8-1.2.1-2.8 1.5-2.5 13.7 2.7 27.6-1.7 37.8-11.9 10.2-10.2 14.6-24.1 11.9-37.8 1.7-1.4-1.2-2.3-2.5-1.5 10.6 6.9 17.6 19.1 17.6 32.5.1 1.5-1 2.5-2.2 2.7z"/></svg>