<svg xmlns="http://www.w3.org/2000/svg" viewBox="0 0 128 128"><path fill="#6db33f" d="M106.8 30.7c-6.2-6.2-14.5-9.6-23.3-9.6s-17.1 3.4-23.3 9.6c-1 1-1.6 2.3-1.6 3.7 0 1.4.6 2.7 1.6 3.7l2.8 2.8c1 1 2.3 1.6 3.7 1.6s2.7-.6 3.7-1.6c3.9-3.9 9-6 14.7-6s10.8 2.1 14.7 6c1 1 2.3 1.6 3.7 1.6s2.7-.6 3.7-1.6l2.8-2.8c1-1 1.6-2.3 1.6-3.7s-.6-2.7-1.6-3.7z"/><path fill="#6db33f" d="M106.8 54.1c-6.2-6.2-14.5-9.6-23.3-9.6s-17.1 3.4-23.3 9.6c-1 1-1.6 2.3-1.6 3.7s.6 2.7 1.6 3.7l2.8 2.8c1 1 2.3 1.6 3.7 1.6s2.7-.6 3.7-1.6c3.9-3.9 9-6 14.7-6s10.8 2.1 14.7 6c1 1 2.3 1.6 3.7 1.6s2.7-.6 3.7-1.6l2.8-2.8c1-1 1.6-2.3 1.6-3.7s-.6-2.7-1.6-3.7z"/><path fill="#6db33f" d="M83.5 67.8c-14.5 0-23.3 9.6-23.3 9.6-1 1-1.6 2.3-1.6 3.7s.6 2.7 1.6 3.7l2.8 2.8c1 1 2.3 1.6 3.7 1.6s2.7-.6 3.7-1.6c3.9-3.9 9-6 14.7-6s10.8 2.1 14.7 6c1 1 2.3 1.6 3.7 1.6s2.7-.6 3.7-1.6l2.8-2.8c1-1 1.6-2.3 1.6-3.7s-.6-2.7-1.6-3.7c-6.2-6.2-14.5-9.6-23.3-9.6zM21.2 97.3c6.2 6.2 14.5 9.6 23.3 9.6s17.1-3.4 23.3-9.6c1-1 1.6-2.3 1.6-3.7s-.6-2.7-1.6-3.7l-2.8-2.8c-1-1-2.3-1.6-3.7-1.6s-2.7.6-3.7 1.6c-3.9 3.9-9 6-14.7 6s-10.8-2.1-14.7-6c-1-1-2.3-1.6-3.7-1.6s-2.7.6-3.7 1.6l-2.8 2.8c-1 1-1.6 2.3-1.6 3.7s.6 2.7 1.6 3.7z"/></svg>